<?xml version="1.0" encoding="UTF-8"?>
<svg width="512" height="516.8" version="1.0" viewBox=".171 .201 5461.3 5512.6" xml:space="preserve" xmlns="http://www.w3.org/2000/svg" xmlns:cc="http://creativecommons.org/ns#" xmlns:dc="http://purl.org/dc/elements/1.1/" xmlns:rdf="http://www.w3.org/1999/02/22-rdf-syntax-ns#" xmlns:xlink="http://www.w3.org/1999/xlink"><metadata><rdf:RDF><cc:Work rdf:about=""><dc:format>image/svg+xml</dc:format><dc:type rdf:resource="http://purl.org/dc/dcmitype/StillImage"/><dc:title/></cc:Work></rdf:RDF></metadata>
 <!-- Gnu Emacs Icon
   Copyright (C) 2008-2017 Free Software Foundation, Inc.

   Author: Nicolas Petton <nicolas@petton.fr>

   This file is part of GNU Emacs.

   GNU Emacs is free software: you can redistribute it and/or modify
   it under the terms of the GNU General Public License as published by
   the Free Software Foundation; either version 3 of the License, or
   (at your option) any later version.

   GNU Emacs is distributed in the hope that it will be useful,
   but WITHOUT ANY WARRANTY; without even the implied warranty of
   MERCHANTABILITY or FITNESS FOR A PARTICULAR PURPOSE.  See the
   GNU General Public License for more details.

   You should have received a copy of the GNU General Public License
   along with GNU Emacs.  If not, see <http://www.gnu.org/licenses/>.

-->
 <!-- Created with Inkscape (http://www.inkscape.org/) --><defs><filter id="filter4350" x="-.044627" y="-.044175" width="1.0893" height="1.0884" color-interpolation-filters="sRGB"><feGaussianBlur stdDeviation="8.7848425"/></filter><linearGradient id="linearGradient4245" x1="-122.2" x2="236.61" y1="-161.85" y2="300.74" gradientTransform="matrix(.87386 0 0 .82818 -116.15 1924.9)" gradientUnits="userSpaceOnUse"><stop stop-color="#208bd2" offset="0"/><stop stop-color="#38a7f2" offset=".56639"/><stop stop-color="#0d81cf" offset="1"/></linearGradient><linearGradient id="linearGradient4247" x1="447.81" x2="173.95" y1="396.61" y2="66.018" gradientTransform="matrix(.98685 0 0 .98685 -359.12 1677.2)" gradientUnits="userSpaceOnUse"><stop stop-color="#0378c7" offset="0"/><stop stop-color="#2c80b8" offset="1"/></linearGradient></defs><rect x="3407" y="-227.16" width="512" height="512" display="none" fill="none"/><g transform="translate(3406.9 -227.36)" display="none"/><g transform="translate(3406.9 -227.36)" display="none"><g display="inline"><path d="m349.1 256.65c-0.265-0.254 37.637 27.605 39.421 25.012 6.362-9.252 82.046-93.137 84.784-116.24 0.242-2.003-0.516-4.096-0.516-4.096s-1.19-0.144-6.325-4.314c-2.692-2.192-5.483-4.581-5.483-4.581-16.054 0.998-57.885 41.559-111.06 103.57" display="none" fill="#050505"/></g></g><g transform="matrix(10.754 0 0 10.754 3881.8 -18015)" opacity=".69"><path transform="matrix(.98685 0 0 .98685 -359.12 1677.2)" d="m491.67 257.76c0 131.79-105.76 238.63-236.22 238.63s-236.22-106.84-236.22-238.63c0-131.79 105.76-238.63 236.22-238.63s236.22 106.84 236.22 238.63z" fill="#211f46" fill-opacity=".99608" filter="url(#filter4350)" opacity=".405" stroke="#0a0b1b" stroke-width="8.5333"/><path d="m126.08 1931.5c0 130.06-104.37 235.5-233.12 235.5-128.75 0-233.12-105.44-233.12-235.5s104.37-235.5 233.12-235.5c128.75 0 233.12 105.44 233.12 235.5z" fill="url(#linearGradient4245)" opacity="1" stroke="url(#linearGradient4247)" stroke-width="13.333"/><path d="m-86.327 2115.4c-17.905-5.0243-32.631-15.159-41.794-28.764-3.9661-5.8893-5.6874-7.3791-6.3951-5.5351-1.4438 3.7624-5.3004 3.0557-9.0014-1.6494-3.3169-4.2168-4.9977-8.5758-8.4253-21.851l-1.8842-7.2973-4.9932 9.5299-3.6989-4.3002c-3.3259-3.8666-7.2048-16.455-7.2994-23.69-0.0288-2.2106-0.64098-1.9829-3.0328 1.1279l-2.9966 3.8974-2.8028-7.3392c-2.0113-5.2665-2.6494-10.852-2.2594-19.778 0.29894-6.8412 0.29026-12.437-0.0192-12.435-0.30955 0-2.5078 1.3754-4.8851 3.0517-13.308 9.3845-38.983 18.121-53.253 18.121-4.1579 0-8.2549-1.1291-10.34-2.8496-3.8995-3.2184-4.5207-1.732 8.4233-20.156 5.2979-7.5408 11.309-22.747 14.755-37.327 0.96512-4.0831 0.75787-4.1864-12.181-6.0723-38.141-5.559-59.259-29.856-65.016-74.801-5.1976-40.579 11.41-72.991 46.04-89.851 29.823-14.52 58.768-15.173 81.226-1.8311 5.9537 3.537 13.912 7.1245 17.684 7.9721 8.362 1.8788 9.4268 2.8226 7.2059 6.3865-2.7961 4.4869-14.7 6.623-36.424 6.536-17.143-0.069-21.832 0.4816-29.721 3.4875-38.498 14.669-56.209 64.623-27.789 78.381 14.119 6.835 28.485-0.2627 46.433-22.941 21.734-27.463 34.499-35.92 56.006-37.107 14.295-0.7887 22.358 1.6219 35.288 10.55 5.639 3.8937 6.3529 4.0241 8.9852 1.6419 6.1323-5.5497 17.304-9.2084 28.229-9.2447 9.0901-0.03 12.545 0.8511 22.121 5.6418 11.449 5.7275 16.608 10.499 39.114 36.168 9.9708 11.373 20.558 18.404 27.712 18.404 1.8875 0 5.7979-1.9909 8.6897-4.4242 15.356-12.921 17.056-48.676 3.0713-64.604-7.5486-8.5974-17.482-12.411-36.386-13.97-18.183-1.4991-23.137-2.9194-27.647-7.9268-2.9769-3.3051-2.962-3.3812 0.81417-4.1549 2.1156-0.4334 7.9479-1.194 12.96-1.6902 5.0126-0.4961 16.37-3.1602 25.24-5.9201 17.904-5.5715 28.068-5.8093 38.344-0.8972 26.184 12.516 46.057 53.795 40.657 84.451-2.5061 14.227-15.046 39.038-24.519 48.51-7.7118 7.7119-14.154 10.593-31.634 14.146l-6.3037 1.2816 7.5124 8.3555c4.1755 4.6442 10.411 9.5155 14.038 10.967 3.7035 1.4818 6.5261 3.7078 6.5261 5.1466 0 4.0992-12.635 8.8136-23.728 8.8538-14.326 0.052-23.775-3.7739-35.008-14.173-5.3105-4.9166-9.7168-8.6771-9.7919-8.3568-4.1124 17.552-4.3346 20.189-1.9313 22.911 3.3073 3.7463 12.732 6.7051 17.526 5.502 2.7428-0.6884 5.2326 0.1827 8.4624 2.9609 4.0595 3.4918 4.5762 5.0271 4.5762 13.597 0 9.503-0.15306 9.8262-9.3631 19.774-10.082 10.89-11.182 14.291-6.1064 18.884 1.7912 1.6211 3.2567 4.636 3.2567 6.7 0 3.9289-6.8397 11.389-11.923 13.006-1.9914 0.633-2.6081 1.8322-1.875 3.6458 3.1662 7.8331 2.7326 14.347-1.2644 18.994-3.5271 4.1004-4.9922 4.622-12.075 4.2988-10.166-0.4638-12.83 2.2776-14.015 14.42-1.151 11.8-3.8277 17.267-10.461 21.367-7.0955 4.3852-21.533 5.3879-32.653 2.2677zm16.563-17.52c-1.814-5.7154-1.1374-12.513 1.6724-16.801 4.8145-7.3478 9.5937-9.1043 27.302-10.034 19.055-1.0008 22.446-2.1841 22.446-7.8325 0-10.09-12.163-13.236-30.528-7.8971-15.525 4.5131-29.51 0.5129-41.447-11.855-3.3148-3.4343-7.2047-9.0714-8.6443-12.527-2.8723-6.8941-2.2211-10.003 0.88115-4.2065 3.4511 6.4486 15.104 18.005 21.387 21.21 7.6485 3.902 12.087 3.8798 27.413-0.1373 6.717-1.7605 17.379-3.2134 23.693-3.2288 15.395-0.037 19.041-3.8268 12.131-12.61-5.2915-6.727-4.1248-10.405 6.5134-20.534 9.1412-8.7034 9.7702-9.7784 9.7702-16.696 0-11.459-1.904-13.693-11.67-13.693-7.6018 0-8.8748-0.5812-15.157-6.9206-3.8602-3.895-8.1686-10.48-9.855-15.062-1.6479-4.478-6.5912-13.813-10.985-20.745-7.3222-11.551-7.8938-13.166-6.8495-19.347 0.67823-4.0144 1.6335-5.944 2.3603-4.7679 0.8398 1.3587 3.5222 1.6306 8.5906 0.8705 4.6231-0.6933 8.7048-0.3906 10.952 0.8121 1.9703 1.0545 3.9538 1.5459 4.4078 1.0919 0.45391-0.4539-0.3416-4.8395-1.7679-9.7456-3.5539-12.225-3.3085-13.73 1.5026-9.2099 2.7232 2.5583 5.7859 9.3383 9.1391 20.231 7.6118 24.727 13.154 33.531 19.103 30.348 2.28-1.2202 4.2181-0.5441 8.5115 2.9695 7.8659 6.4371 11.907 8.3061 17.958 8.3061h5.2852l-7.1081-6.0843c-5.6544-4.8399-9.2372-10.544-17.518-27.888-11.81-24.737-20.778-35.883-33.767-41.97-11.342-5.3153-20.834-5.0228-33.642 1.0365-5.6779 2.6861-11.587 4.8844-13.131 4.8851-1.544 5e-4 -8.5052-2.3008-15.469-5.1143-14.937-6.0346-28.211-9.479-36.665-9.5143-3.3501-0.014-13.609 2.8093-22.797 6.2739s-20.562 7.5565-25.274 9.0931c-5.5568 1.812-11.729 5.683-17.563 11.015-14.972 13.683-20.148 24.927-25.166 54.666-2.3626 14.002-4.4779 20.974-8.8766 29.257-5.9593 11.223-7.0006 15.053-4.0923 15.053 4.7538 0 18.368-9.0137 24.911-16.493 6.3203-7.225 7.793-8.1732 9.9346-6.3958 2.8257 2.3452 2.2574 3.2366 7.2076-11.307 2.1194-6.2269 3.8171-8.8199 5.5713-8.5094 5.5768 0.987 11.567-12.614 13.466-30.571 0.61539-5.8214 2.2072-13.323 3.5373-16.67 3.082-7.7555 11.793-15.433 19.057-16.796 8.6754-1.6275 10.225-0.1 3.7655 3.7116-9.2454 5.455-10.851 9.3824-13.465 32.93-1.6198 14.595-3.6932 24.763-6.4593 31.677-3.9024 9.7545-5.2965 20.374-2.9789 22.692 0.60219 0.6022 3.1371-1.2908 5.6331-4.2066l4.5382-5.3015 0.0662 10.246c0.0658 10.186 4.0704 33.24 6.5421 37.663 0.98742 1.7668 1.8903 1.1606 3.8149-2.5611 1.3867-2.6817 3.6255-5.7921 4.975-6.9121 2.0947-1.7384 2.6094-1.1254 3.5176 4.1895 8.1092 47.457 23.888 73.022 50.136 81.229 3.7398 1.1694 8.4978 2.1752 10.573 2.2351 3.1853 0.092 3.5927-0.461 2.6132-3.5471zm6.1318-89.954c-1.6795-3.686-2.5641-4.0297-8.0948-3.1453-4.5414 0.7262-6.7711 0.316-8.3006-1.527-5.1038-6.1497 3.4467-12.538 11.46-8.5625 5.0333 2.4972 10.925 13.269 8.5549 15.639-1.2264 1.2263-2.2859 0.5225-3.6194-2.4043zm-26.4-3.3838c-6.7195-17.674 7.6888-31.814 26.614-26.118 8.2793 2.4918 22.973 12.49 24.605 16.741 2.2288 5.8082-2.1016 5.3025-9.8037-1.1448-9.0167-7.5476-18.652-12.987-22.991-12.978-1.603 0-5.2587 1.4354-8.1239 3.1824-5.802 3.5377-9.4708 13.256-7.6873 20.362 1.3503 5.3803-0.56288 5.3474-2.6131-0.045zm-26.683-65.683c-1.868-2.0641-2.631-5.1329-2.2878-9.2014 0.70895-8.4045 6.932-12.941 17.752-12.941 6.4981 0 8.2322-0.5997 9.0335-3.1243 0.79665-2.51 1.4214-1.8741 3.1778 3.2348 2.5899 7.5334 1.2075 9.5858-4.8941 7.266-5.044-1.9177-7.4561-1.0508-7.4561 2.6797 0 1.7347 1.0294 2.2672 3.2567 1.6847 3.7297-0.9753 4.5817 3.3806 1.3027 6.6596-5.2653 5.2653-16.059-1.5416-12.624-7.9608 2.4658-4.6074 1.815-5.4841-1.7058-2.2979-3.5584 3.2204-4.2111 9.0152-1.5711 13.948 2.1635 4.0425-0.34293 4.0756-3.9836 0.053zm92.451 15.082c2.0666-15.077 1.2742-25.92-2.1186-28.99-3.4246-3.0992-6.6161-2.2205-6.6161 1.8215 0 1.7347 1.0294 2.2672 3.2567 1.6847 2.3171-0.6059 3.2568-0.05 3.2568 1.927 0 3.7747-3.1911 6.6867-7.3276 6.6867-7.5797 0-10.036-9.2763-3.6638-13.835 3.5886-2.567 3.5305-2.6107-2.8361-2.1278-8.7847 0.6662-9.0549 4.0141-1.0688 13.241 3.5401 4.0903 7.7048 11.322 9.2549 16.07 4.588 14.055 6.313 14.827 7.8627 3.5212zm-228.56-24.291c0-0.499-0.81634-4.1493-1.8141-8.1117-0.99777-3.9625-1.3569-8.3959-0.79814-9.8521 0.84469-2.2012 2.095-1.6728 7.4161 3.1346 8.2332 7.4382 13.846 10.282 22.9 11.601l7.3062 1.0646 4.8678-7.8276c8.1059-13.034 23.471-26.897 37.27-33.626 6.8269-3.3289 12.413-6.4993 12.413-7.0453 0-0.5461-1.2812-1.9297-2.8471-3.0747s-2.3528-2.5762-1.7485-3.1804c0.60419-0.6042 7.8466-2.1065 16.094-3.3386s15.326-2.5702 15.729-2.9736c0.40341-0.4034-0.81536-1.5623-2.7084-2.5754-5.4864-2.9363-2.2925-4.9353 7.8853-4.9353 12.872 0 21.938 3.0375 40.513 13.573 21.301 12.082 23.675 12.259 36.383 2.7103 9.1893-6.9048 12.827-8.0593 12.827-4.0709 0 1.754 1.7919 2.4425 6.357 2.4425 4.2399 0 9.6629 1.8686 16.284 5.6109 5.4596 3.0859 9.9266 5.0816 9.9266 4.4349 0-2.1109-17.773-23.752-24.026-29.254-13.869-12.205-28.964-16.354-39.561-10.874-7.2693 3.7591-5.802 5.5985 3.7447 4.6943l8.5489-0.8097-6.2899 2.3861c-3.4595 1.3123-8.3231 4.3339-10.808 6.7146l-4.5182 4.3287-8.0568-5.7883c-15.367-11.04-29.091-16.355-43.915-17.007-11.678-0.5134-14.501-0.054-22.683 3.6919-12.848 5.8818-21.527 13.399-34.179 29.602-12.828 16.428-22.515 24.237-34.323 27.67-9.6506 2.8054-16.226 2.0682-24.617-2.7603-6.9086-3.9755-8.2505-3.8996-9.9805 0.5649-1.3056 3.3692-1.7099 3.0201-5.0293-4.3433-7.5454-16.738-1.5193-40.983 15.603-62.777 4.139-5.2683 10.391-11.565 13.894-13.992 6.4133-4.4444 7.9116-8.2888 4.5433-11.657-3.1708-3.1708 11.817-4.2329 42.376-3.0029 16.889 0.6798 27.985 0.555 27.026-0.304-0.89562-0.8015-7.7898-4.2176-15.32-7.5913-21.468-9.6174-40.853-11.863-40.272-4.6654 0.18826 2.3327-1.7775 3.0552-11.17 4.1055-11.881 1.3286-31.041 6.9054-32.646 9.5017-0.51522 0.8336 2.4169 1.5015 6.5919 1.5015 4.1359 0 7.1258 0.6376 6.6442 1.4169-0.48163 0.7793-5.471 3.1273-11.088 5.2178-14.33 5.3336-25.506 16.672-30.397 30.839-7.3561 21.308-6.0376 43.444 3.8278 64.267l3.8729 8.1743 0.29803-5.6993c0.39718-7.595 2.1281-13.474 4.1674-14.154 0.9139-0.3046 3.2896 4.5007 5.2792 10.678 3.4384 10.676 13.326 26.272 16.655 26.272 0.85457 0 1.5538-0.4083 1.5538-0.9073zm298.84-17.028c2.9191-1.8041 8.0008-6.5671 11.293-10.584 7.0946-8.658 9.3231-9.2259 7.8944-2.012-1.6659 8.4113 2.9383 3.3166 9.1171-10.088 12.846-27.87 6.0492-58.273-18.031-80.652-15.877-14.755-28.319-18.492-43.605-13.099-3.759 1.3263-12.336 3.0944-19.061 3.9292-6.7243 0.8349-12.546 1.8379-12.937 2.229-0.39107 0.391 7.7109 1.477 18.004 2.4132 15.014 1.3656 20.751 2.6547 29.007 6.5183 13.375 6.2588 21.141 13.225 26.312 23.6 5.6332 11.304 5.4236 18.112-0.37898 12.309-2.9365-2.9364-2.5178 0.436 1.3018 10.486 3.0352 7.9856 4.4966 22.408 2.2707 22.408-0.54282 0-2.4279-1.8319-4.1891-4.0709-1.7612-2.239-3.7469-4.0709-4.4127-4.0709-0.66579 0-2.877 4.0207-4.9138 8.9348-5.063 12.215-11.176 17.119-21.34 17.119-4.3509 0-9.8921-0.7533-12.314-1.674-6.7113-2.5516-6.2023-1.0859 1.316 3.789 4.9335 3.199 8.8784 4.3984 14.466 4.3984 4.2255 0 8.8417 0.4448 10.258 0.9884 3.0474 1.1694 3.3803 5.6975 0.62171 8.4561-3.3151 3.3151 3.3429 2.3677 9.3196-1.3261z" fill="#fff" stroke-width="1.6284"/></g></svg>
