<?xml version="1.0" encoding="UTF-8"?>
<svg width="512" height="516.8" version="1.0" viewBox=".171 .201 5461.3 5512.6" xml:space="preserve" xmlns="http://www.w3.org/2000/svg" xmlns:cc="http://creativecommons.org/ns#" xmlns:dc="http://purl.org/dc/elements/1.1/" xmlns:rdf="http://www.w3.org/1999/02/22-rdf-syntax-ns#"><metadata><rdf:RDF><cc:Work rdf:about=""><dc:format>image/svg+xml</dc:format><dc:type rdf:resource="http://purl.org/dc/dcmitype/StillImage"/><dc:title/></cc:Work></rdf:RDF></metadata>
 
 <!-- Gnu Emacs Icon
   Copyright (C) 2008-2017 Free Software Foundation, Inc.

   Author: Nicolas Petton <nicolas@petton.fr>

   This file is part of GNU Emacs.

   GNU Emacs is free software: you can redistribute it and/or modify
   it under the terms of the GNU General Public License as published by
   the Free Software Foundation; either version 3 of the License, or
   (at your option) any later version.

   GNU Emacs is distributed in the hope that it will be useful,
   but WITHOUT ANY WARRANTY; without even the implied warranty of
   MERCHANTABILITY or FITNESS FOR A PARTICULAR PURPOSE.  See the
   GNU General Public License for more details.

   You should have received a copy of the GNU General Public License
   along with GNU Emacs.  If not, see <http://www.gnu.org/licenses/>.

-->
 
 <!-- Created with Inkscape (http://www.inkscape.org/) --><rect x="3407" y="-227.16" width="512" height="512" display="none" fill="none"/><g transform="translate(3406.9 -227.36)" display="none"><g display="inline"><path d="m349.1 256.65c-0.265-0.254 37.637 27.605 39.421 25.012 6.362-9.252 82.046-93.137 84.784-116.24 0.242-2.003-0.516-4.096-0.516-4.096s-1.19-0.144-6.325-4.314c-2.692-2.192-5.483-4.581-5.483-4.581-16.054 0.998-57.885 41.559-111.06 103.57" display="none" fill="#050505"/></g></g><path d="m2980.3 4571.5c-192.55-54.031-350.91-163.02-449.45-309.33-42.652-63.334-61.162-79.355-68.773-59.524-15.527 40.461-57 32.861-96.801-17.738-35.67-45.347-53.745-92.224-90.606-234.99l-20.263-78.475-53.697 102.48-39.778-46.244c-35.767-41.581-77.48-176.96-78.498-254.76-0.3098-23.773-6.8931-21.324-32.615 12.13l-32.225 41.913-30.141-78.926c-21.63-56.636-28.492-116.7-24.298-212.69 3.2148-73.57 3.1214-133.75-0.2065-133.73-3.3289 0-26.969 14.791-52.534 32.818-143.11 100.92-419.22 194.87-572.68 194.87-44.714 0-88.773-12.142-111.2-30.645-41.935-34.611-48.616-18.626 90.584-216.76 56.974-81.094 121.62-244.62 158.68-401.41 10.379-43.91 8.1501-45.02-130.99-65.302-410.17-59.782-637.27-321.07-699.18-804.41-55.895-436.39 122.7-784.95 495.11-966.26 320.72-156.15 631.99-163.17 873.5-19.692 64.026 38.037 149.61 76.617 190.17 85.732 89.925 20.205 101.38 30.354 77.492 68.68-30.069 48.252-158.08 71.224-391.7 70.288-184.36-0.7421-234.78 5.1791-319.62 37.504-414.01 157.75-604.47 694.96-298.84 842.91 151.84 73.504 306.33-2.8251 499.34-246.71 233.73-295.34 371-386.28 602.29-399.05 153.73-8.4817 240.44 17.442 379.49 113.45 60.642 41.873 68.319 43.275 96.627 17.657 65.947-59.682 186.09-99.027 303.57-99.418 97.755-0.3226 134.91 9.1527 237.89 60.672 123.12 61.594 178.6 112.91 420.63 388.95 107.23 122.31 221.08 197.92 298.01 197.92 20.298 0 62.351-21.41 93.449-47.578 165.14-138.95 183.42-523.46 33.029-694.75-81.178-92.456-188-133.47-391.3-150.23-195.54-16.121-248.82-31.395-297.32-85.245-32.014-35.543-31.853-36.362 8.7556-44.682 22.751-4.6608 85.472-12.84 139.37-18.176 53.906-5.3351 176.04-33.985 271.43-63.665 192.54-59.916 301.84-62.473 412.35-9.6485 281.58 134.6 495.3 578.51 437.23 908.19-26.951 153-161.8 419.81-263.68 521.68-82.933 82.934-152.21 113.92-340.19 152.13l-67.79 13.782 80.788 89.855c44.903 49.944 111.96 102.33 150.96 117.94 39.828 15.935 70.182 39.874 70.182 55.346 0 44.083-135.88 94.782-255.17 95.214-154.06 0.5592-255.68-40.584-376.48-152.42-57.109-52.873-104.49-93.314-105.3-89.869-44.225 188.75-46.614 217.11-20.769 246.38 35.567 40.288 136.92 72.107 188.47 59.168 29.496-7.403 56.271 1.9648 91.005 31.842 43.656 37.551 49.212 54.062 49.212 146.22 0 102.2-1.646 105.67-100.69 212.65-108.42 117.11-120.25 153.69-65.668 203.08 19.262 17.433 35.022 49.856 35.022 72.052 0 42.251-73.554 122.48-128.22 139.87-21.416 6.8073-28.048 19.704-20.164 39.207 34.049 84.237 29.386 154.29-13.597 204.26-37.93 44.096-53.686 49.705-129.85 46.229-109.33-4.9877-137.97 24.493-150.72 155.07-12.378 126.9-41.163 185.69-112.5 229.78-76.305 47.158-231.57 57.942-351.15 24.387zm178.12-188.41c-19.508-61.463-12.232-134.56 17.985-180.68 51.775-79.018 103.17-97.908 293.61-107.91 204.92-10.763 241.38-23.488 241.38-84.231 0-108.51-130.8-142.34-328.3-84.925-166.96 48.534-317.35 5.5157-445.72-127.49-35.647-36.932-77.479-97.554-92.961-134.72-30.889-74.139-23.886-107.57 9.4759-45.237 37.113 69.348 162.43 193.63 230 228.09 82.252 41.962 129.98 41.723 294.8-1.4765 72.235-18.932 186.89-34.557 254.79-34.722 165.56-0.3979 204.77-41.153 130.46-135.61-56.905-72.342-44.358-111.9 70.045-220.82 98.304-93.596 105.07-105.16 105.07-179.55 0-123.23-20.476-147.25-125.5-147.25-81.75 0-95.44-6.2502-163-74.424-41.513-41.887-87.845-112.7-105.98-161.98-17.722-48.156-70.882-148.54-118.13-223.09-78.743-124.22-84.89-141.59-73.66-208.06 7.2937-43.171 17.567-63.922 25.383-51.274 9.0312 14.611 37.878 17.535 92.383 9.3613 49.717-7.4557 93.611-4.2005 117.78 8.7333 21.189 11.34 42.519 16.625 47.402 11.742 4.8814-4.8812-3.6735-52.044-19.012-104.8-38.219-131.47-35.58-147.65 16.159-99.043 29.285 27.512 62.222 100.42 98.282 217.56 81.857 265.91 141.46 360.59 205.43 326.36 24.519-13.122 45.362-5.8512 91.533 31.934 84.59 69.224 128.05 89.324 193.12 89.324h56.837l-76.44-65.431c-60.808-52.048-99.337-113.39-188.39-299.91-127-266.02-223.45-385.89-363.13-451.35-121.97-57.161-224.05-54.015-361.79 11.146-61.06 28.886-124.61 52.527-141.21 52.534-16.604 0.01-91.465-24.743-166.35-54.999-160.63-64.896-303.38-101.94-394.3-102.32-36.027-0.1506-146.35 30.211-245.16 67.47-98.808 37.258-221.12 81.263-271.8 97.787-59.758 19.486-126.13 61.115-188.87 118.46-161.01 147.15-216.67 268.06-270.64 587.88-25.407 150.58-48.155 225.55-95.459 314.63-64.086 120.69-75.284 161.88-44.009 161.88 51.122 0 197.53-96.933 267.89-177.37 67.968-77.698 83.806-87.895 106.84-68.78 30.388 25.22 24.276 34.806 77.511-121.6 22.792-66.964 41.049-94.849 59.914-91.51 59.973 10.614 124.39-135.65 144.81-328.76 6.6179-62.603 23.736-143.28 38.04-179.27 33.144-83.403 126.82-165.97 204.94-180.62 93.295-17.502 109.96-1.0754 40.494 39.914-99.425 58.663-116.69 100.9-144.8 354.13-17.419 156.95-39.717 266.3-69.463 340.65-41.966 104.9-56.958 219.1-32.035 244.03 6.4759 6.476 33.736-13.881 60.578-45.238l48.804-57.012 0.7119 110.19c0.7076 109.54 43.773 357.46 70.354 405.03 10.619 19 20.328 12.481 41.025-27.542 14.913-28.839 38.989-62.288 53.501-74.333 22.526-18.695 28.061-12.103 37.828 45.054 87.206 510.35 256.89 785.28 539.16 873.54 40.218 12.576 91.385 23.392 113.7 24.036 34.255 0.9894 38.636-4.9576 28.102-38.146zm65.941-967.37c-18.061-39.639-27.574-43.335-87.052-33.825-48.838 7.8096-72.816 3.3983-89.265-16.421-54.886-66.134 37.066-134.83 123.24-92.081 54.128 26.855 117.49 142.69 91.999 168.18-13.189 13.188-24.582 5.6189-38.923-25.856zm-283.91-36.389c-72.262-190.07 82.685-342.13 286.21-280.87 89.036 26.797 247.05 134.32 264.6 180.03 23.969 62.461-22.601 57.023-105.43-12.311-96.966-81.167-200.58-139.66-247.25-139.57-17.239 0-56.552 15.436-87.364 34.224-62.395 38.044-101.85 142.56-82.669 218.97 14.521 57.86-6.0532 57.506-28.101-0.4839zm-286.95-706.36c-20.088-22.197-28.294-55.199-24.603-98.952 7.6241-90.382 74.547-139.17 190.9-139.17 69.881 0 88.529-6.4492 97.146-33.599 8.5672-26.992 15.286-20.154 34.174 34.787 27.852 81.014 12.985 103.09-52.631 78.138-54.243-20.623-80.183-11.3-80.183 28.818 0 18.655 11.07 24.382 35.023 18.117 40.109-10.488 49.272 36.355 14.009 71.617-56.623 56.623-172.7-16.578-135.76-85.61 26.517-49.548 19.518-58.976-18.344-24.712-38.267 34.632-45.286 96.949-16.896 150 23.266 43.473-3.6878 43.829-42.84 0.5699zm994.22 162.19c22.224-162.14 13.703-278.74-22.783-311.76-36.828-33.329-71.15-23.879-71.15 19.588 0 18.655 11.07 24.382 35.023 18.117 24.918-6.5159 35.024-0.5377 35.024 20.723 0 40.593-34.317 71.909-78.801 71.909-81.512 0-107.93-99.757-39.4-148.78 38.592-27.606 37.967-28.075-30.499-22.882-94.471 7.1643-97.376 43.168-11.494 142.39 38.07 43.987 82.857 121.76 99.527 172.82 49.339 151.15 67.89 159.45 84.556 37.867zm-2457.9-261.23c0-5.3663-8.779-44.622-19.509-87.233-10.73-42.613-14.592-90.29-8.5832-105.95 9.0838-23.672 22.53-17.989 79.753 33.71 88.54 79.99 148.9 110.57 246.27 124.76l78.571 11.449 52.348-84.178c87.171-140.17 252.41-289.25 400.8-361.61 73.416-35.799 133.49-69.894 133.49-75.765 0-5.8727-13.778-20.752-30.618-33.065s-25.302-27.704-18.803-34.202c6.4974-6.4976 84.382-22.653 173.07-35.903 88.693-13.25 164.82-27.64 169.15-31.978 4.3383-4.3382-8.7684-16.801-29.126-27.696-59.001-31.577-24.654-53.074 84.798-53.074 138.43 0 235.92 32.665 435.68 145.96 229.07 129.93 254.6 131.83 391.26 29.146 98.822-74.254 137.94-86.67 137.94-43.778 0 18.862 19.27 26.267 68.363 26.267 45.596 0 103.91 20.095 175.12 60.34 58.713 33.186 106.75 54.648 106.75 47.693 0-22.701-191.13-255.43-258.38-314.6-149.15-131.25-311.48-175.87-425.44-116.94-78.174 40.425-62.395 60.206 40.27 50.482l91.935-8.7075-67.642 25.66c-37.204 14.112-89.507 46.607-116.23 72.209l-48.589 46.551-86.643-62.247c-165.26-118.72-312.84-175.88-472.26-182.89-125.59-5.5211-155.94-0.5807-243.93 39.703-138.17 63.253-231.5 144.09-367.56 318.34-137.95 176.67-242.13 260.64-369.11 297.56-103.78 30.169-174.49 22.241-264.73-29.684-74.295-42.752-88.726-41.936-107.33 6.075-14.04 36.232-18.388 32.478-54.085-46.708-81.143-180-16.339-440.73 167.79-675.1 44.511-56.655 111.74-124.37 149.42-150.47 68.969-47.795 85.081-89.138 48.859-125.36-34.099-34.099 127.08-45.521 455.71-32.293 181.62 7.3106 300.95 5.9685 290.64-3.2692-9.6315-8.6193-83.772-45.356-164.75-81.637-230.87-103.43-439.33-127.57-433.09-50.172 2.0246 25.086-19.115 32.856-120.12 44.15-127.77 14.288-333.81 74.261-351.08 102.18-5.5407 8.9645 25.991 16.147 70.889 16.147 44.477 0 76.631 6.8568 71.452 15.237-5.1795 8.3806-58.835 33.631-119.24 56.112-154.1 57.358-274.29 179.29-326.89 331.64-79.108 229.15-64.928 467.2 41.164 691.13l41.649 87.906 3.205-61.29c4.2713-81.677 22.886-144.9 44.816-152.21 9.8281-3.2757 35.376 48.4 56.773 114.83 36.977 114.81 143.31 282.53 179.11 282.53 9.1901 0 16.71-4.3909 16.71-9.7572zm3213.7-183.12c31.392-19.401 86.041-70.623 121.44-113.82 76.295-93.108 100.26-99.215 84.896-21.637-17.915 90.455 31.598 35.667 98.045-108.49 138.15-299.71 65.053-626.67-193.91-867.33-170.74-158.68-304.54-198.86-468.93-140.87-40.424 14.263-132.66 33.277-204.98 42.255-72.313 8.9785-134.92 19.765-139.12 23.971-4.2056 4.2048 82.923 15.884 193.62 25.952 161.46 14.686 223.16 28.549 311.94 70.098 143.83 67.307 227.35 142.22 282.96 253.79 60.579 121.56 58.325 194.78-4.0755 132.37-31.579-31.578-27.076 4.6887 14 112.77 32.641 85.877 48.356 240.98 24.419 240.98-5.8375 0-26.11-19.7-45.05-43.778-18.94-24.078-40.294-43.778-47.454-43.778-7.1599 0-30.939 43.239-52.843 96.085-54.448 131.36-120.19 184.1-229.49 184.1-46.79 0-106.38-8.101-132.42-18.002-72.173-27.44-66.7-11.678 14.152 40.747 53.055 34.402 95.478 47.3 155.57 47.3 45.441 0 95.084 4.7834 110.31 10.629 32.772 12.576 36.352 61.271 6.6859 90.937-35.651 35.651 35.95 25.462 100.22-14.261z" fill="#1e1e1e" stroke="#303030" stroke-width="10.667"/></svg>
